<?xml version="1.0" standalone="no"?>
<!DOCTYPE svg PUBLIC "-//W3C//DTD SVG 20010904//EN"
 "http://www.w3.org/TR/2001/REC-SVG-20010904/DTD/svg10.dtd">
<svg version="1.0" xmlns="http://www.w3.org/2000/svg"
 width="1030.000000pt" height="1030.000000pt" viewBox="0 0 1030.000000 1030.000000"
 preserveAspectRatio="xMidYMid meet">
<metadata>
Created by potrace 1.14, written by Peter Selinger 2001-2017
</metadata>
<g transform="translate(0.000000,1030.000000) scale(0.100000,-0.100000)"
fill="#000000" stroke="none">
<path d="M5025 10098 c-22 -6 -121 -32 -220 -58 -99 -27 -277 -71 -395 -100
-118 -28 -296 -73 -395 -100 -99 -26 -236 -62 -305 -80 -516 -134 -821 -260
-1140 -473 -366 -244 -802 -622 -993 -861 -161 -202 -362 -525 -522 -841 -150
-295 -189 -403 -295 -824 -38 -152 -102 -388 -140 -526 -129 -458 -211 -798
-236 -980 -3 -27 -8 -57 -9 -66 -2 -9 -6 -40 -10 -69 -4 -29 -9 -62 -11 -74
-2 -12 -6 -48 -10 -81 -3 -33 -7 -65 -9 -72 -2 -7 -7 -52 -11 -100 -4 -48 -8
-91 -10 -95 -9 -15 -12 -411 -3 -503 34 -380 143 -745 349 -1170 255 -523 739
-1157 1136 -1487 177 -146 443 -335 618 -437 101 -59 385 -203 556 -281 141
-65 298 -127 540 -215 102 -37 214 -82 250 -100 146 -73 353 -150 526 -195 92
-24 531 -116 639 -133 17 -3 62 -10 100 -17 39 -6 81 -13 95 -15 14 -2 43 -7
65 -10 22 -4 51 -8 65 -10 14 -2 48 -7 75 -10 28 -4 57 -8 65 -10 77 -19 660
-28 840 -13 173 15 253 38 304 89 22 23 52 41 70 44 76 13 323 70 454 106 204
55 326 106 492 205 80 47 235 135 345 196 335 185 394 232 585 458 62 74 150
174 194 221 165 174 284 338 693 949 125 187 147 227 209 387 120 305 199 677
239 1123 3 36 8 81 10 100 2 19 7 73 10 120 3 47 8 105 10 130 2 25 7 88 10
140 17 285 33 481 54 670 6 47 13 112 17 145 3 33 8 68 9 77 2 9 7 48 10 85 4
37 8 75 10 83 11 42 20 226 20 390 -1 208 -16 321 -71 540 -63 251 -110 379
-187 512 -135 233 -143 258 -150 478 -5 161 -22 197 -166 341 -123 122 -161
173 -246 334 -70 133 -147 253 -223 349 -263 333 -530 617 -695 740 -248 184
-573 349 -1008 510 -265 98 -558 178 -1079 295 -687 153 -726 162 -800 176
-95 18 -273 25 -325 13z"/>
</g>
</svg>
